# Blender 4.4.1
# www.blender.org
mtllib direction_gizmo.mtl
o Cone
v 0.000000 0.109553 -0.194305
v 0.168274 0.109553 0.097153
v -0.168274 0.109553 0.097153
v 0.000000 0.498164 0.000000
v 0.000000 0.112884 -0.093136
v 0.080658 0.112884 0.046568
v -0.080658 0.112884 0.046568
v 0.000000 -0.499957 0.000000
vn 0.8402 0.2425 -0.4851
vn -0.0000 -1.0000 -0.0000
vn -0.0000 0.2425 0.9701
vn -0.8402 0.2425 -0.4851
vn 0.8635 -0.0758 -0.4986
vn -0.0000 1.0000 -0.0000
vn -0.0000 -0.0758 0.9971
vn -0.8635 -0.0758 -0.4986
vt 0.250000 0.490000
vt 0.250000 0.250000
vt 0.457846 0.130000
vt 0.750000 0.490000
vt 0.957846 0.130000
vt 0.542154 0.130000
vt 0.042154 0.130000
s 0
f 1/1/1 4/2/1 2/3/1
f 1/4/2 2/5/2 3/6/2
f 2/3/3 4/2/3 3/7/3
f 3/7/4 4/2/4 1/1/4
f 5/1/5 6/3/5 8/2/5
f 5/4/6 7/6/6 6/5/6
f 6/3/7 7/7/7 8/2/7
f 7/7/8 5/1/8 8/2/8
